<?xml version="1.0" encoding="UTF-8" standalone="no"?><svg xmlns="http://www.w3.org/2000/svg" xmlns:xlink="http://www.w3.org/1999/xlink" contentScriptType="application/ecmascript" contentStyleType="text/css" height="1208px" preserveAspectRatio="none" style="width:1314px;height:1208px;" version="1.1" viewBox="0 0 1314 1208" width="1314px" zoomAndPan="magnify"><defs><filter height="300%" id="f1tnmbygavo654" width="300%" x="-1" y="-1"><feGaussianBlur result="blurOut" stdDeviation="2.0"/><feColorMatrix in="blurOut" result="blurOut2" type="matrix" values="0 0 0 0 0 0 0 0 0 0 0 0 0 0 0 0 0 0 .4 0"/><feOffset dx="4.0" dy="4.0" in="blurOut2" result="blurOut3"/><feBlend in="SourceGraphic" in2="blurOut3" mode="normal"/></filter></defs><g><!--MD5=[f12f832c3ac0603ce526ef171d08d9c6]
cluster base--><polygon fill="#FFFFFF" filter="url(#f1tnmbygavo654)" points="22,24,66,24,73,46.2969,254,46.2969,254,480,22,480,22,24" style="stroke: #000000; stroke-width: 1.5;"/><line style="stroke: #000000; stroke-width: 1.5;" x1="22" x2="73" y1="46.2969" y2="46.2969"/><text fill="#000000" font-family="sans-serif" font-size="14" font-weight="bold" lengthAdjust="spacingAndGlyphs" textLength="38" x="26" y="38.9951">base</text><!--MD5=[a4ef9999c7dc2ad6cf1f9ed4d8ebd8a2]
cluster Cli--><polygon fill="#FFFFFF" filter="url(#f1tnmbygavo654)" points="278,272,303,272,310,294.2969,1028,294.2969,1028,793,278,793,278,272" style="stroke: #000000; stroke-width: 1.5;"/><line style="stroke: #000000; stroke-width: 1.5;" x1="278" x2="310" y1="294.2969" y2="294.2969"/><text fill="#000000" font-family="sans-serif" font-size="14" font-weight="bold" lengthAdjust="spacingAndGlyphs" textLength="19" x="282" y="286.9951">Cli</text><!--MD5=[059574ba008e1dc9fb6710feca4c86e1]
cluster BlakJack--><polygon fill="#FFFFFF" filter="url(#f1tnmbygavo654)" points="1052,617,1121,617,1128,639.2969,1292,639.2969,1292,1196,1052,1196,1052,617" style="stroke: #000000; stroke-width: 1.5;"/><line style="stroke: #000000; stroke-width: 1.5;" x1="1052" x2="1128" y1="639.2969" y2="639.2969"/><text fill="#000000" font-family="sans-serif" font-size="14" font-weight="bold" lengthAdjust="spacingAndGlyphs" textLength="63" x="1056" y="631.9951">BlakJack</text><!--MD5=[84718776d214be480e4c259efcb737fc]
class Main--><rect fill="#FEFECE" filter="url(#f1tnmbygavo654)" height="150.4375" id="Main" style="stroke: #A80036; stroke-width: 1.5;" width="148" x="90" y="59"/><ellipse cx="145.25" cy="75" fill="#ADD1B2" rx="11" ry="11" style="stroke: #A80036; stroke-width: 1.0;"/><path d="M148.2188,80.6406 Q147.6406,80.9375 147,81.0781 Q146.3594,81.2344 145.6563,81.2344 Q143.1563,81.2344 141.8281,79.5938 Q140.5156,77.9375 140.5156,74.8125 Q140.5156,71.6875 141.8281,70.0313 Q143.1563,68.375 145.6563,68.375 Q146.3594,68.375 147,68.5313 Q147.6563,68.6875 148.2188,68.9844 L148.2188,71.7031 Q147.5938,71.125 147,70.8594 Q146.4063,70.5781 145.7813,70.5781 Q144.4375,70.5781 143.75,71.6563 Q143.0625,72.7188 143.0625,74.8125 Q143.0625,76.9063 143.75,77.9844 Q144.4375,79.0469 145.7813,79.0469 Q146.4063,79.0469 147,78.7813 Q147.5938,78.5 148.2188,77.9219 L148.2188,80.6406 Z "/><text fill="#000000" font-family="sans-serif" font-size="12" lengthAdjust="spacingAndGlyphs" textLength="29" x="165.75" y="79.1543">Main</text><line style="stroke: #A80036; stroke-width: 1.5;" x1="91" x2="237" y1="91" y2="91"/><rect fill="none" height="6" style="stroke: #C82930; stroke-width: 1.0;" width="6" x="98" y="99"/><text fill="#000000" font-family="sans-serif" font-size="11" lengthAdjust="spacingAndGlyphs" textLength="122" x="110" y="105.2104">m_player_money : int</text><line style="stroke: #A80036; stroke-width: 1.5;" x1="91" x2="237" y1="111.8047" y2="111.8047"/><ellipse cx="101" cy="122.8047" fill="#84BE84" rx="3" ry="3" style="stroke: #038048; stroke-width: 1.0;"/><text fill="#000000" font-family="sans-serif" font-size="11" lengthAdjust="spacingAndGlyphs" textLength="60" x="110" y="126.0151">init() : void</text><ellipse cx="101" cy="135.6094" fill="#84BE84" rx="3" ry="3" style="stroke: #038048; stroke-width: 1.0;"/><text fill="#000000" font-family="sans-serif" font-size="11" lengthAdjust="spacingAndGlyphs" textLength="67" x="110" y="138.8198">loop() : void</text><text fill="#000000" font-family="sans-serif" font-size="11" lengthAdjust="spacingAndGlyphs" textLength="0" x="114" y="151.6245"/><rect fill="#F24D5C" height="6" style="stroke: #C82930; stroke-width: 1.0;" width="6" x="98" y="158.2188"/><text fill="#000000" font-family="sans-serif" font-size="11" lengthAdjust="spacingAndGlyphs" textLength="75" x="110" y="164.4292">menu() : void</text><rect fill="#F24D5C" height="6" style="stroke: #C82930; stroke-width: 1.0;" width="6" x="98" y="171.0234"/><text fill="#000000" font-family="sans-serif" font-size="11" lengthAdjust="spacingAndGlyphs" textLength="69" x="110" y="177.2339">inlay() : void</text><rect fill="#F24D5C" height="6" style="stroke: #C82930; stroke-width: 1.0;" width="6" x="98" y="183.8281"/><text fill="#000000" font-family="sans-serif" font-size="11" lengthAdjust="spacingAndGlyphs" textLength="107" x="110" y="190.0386">player_turn() : void</text><rect fill="#F24D5C" height="6" style="stroke: #C82930; stroke-width: 1.0;" width="6" x="98" y="196.6328"/><text fill="#000000" font-family="sans-serif" font-size="11" lengthAdjust="spacingAndGlyphs" textLength="108" x="110" y="202.8433">dealer_turn() : void</text><!--MD5=[1e496b1011a812824fd1ffad2bab8f30]
class State_machine--><rect fill="#FEFECE" filter="url(#f1tnmbygavo654)" height="112.0234" id="State_machine" style="stroke: #A80036; stroke-width: 1.5;" width="199" x="38.5" y="352"/><ellipse cx="87.25" cy="368" fill="#ADD1B2" rx="11" ry="11" style="stroke: #A80036; stroke-width: 1.0;"/><path d="M90.2188,373.6406 Q89.6406,373.9375 89,374.0781 Q88.3594,374.2344 87.6563,374.2344 Q85.1563,374.2344 83.8281,372.5938 Q82.5156,370.9375 82.5156,367.8125 Q82.5156,364.6875 83.8281,363.0313 Q85.1563,361.375 87.6563,361.375 Q88.3594,361.375 89,361.5313 Q89.6563,361.6875 90.2188,361.9844 L90.2188,364.7031 Q89.5938,364.125 89,363.8594 Q88.4063,363.5781 87.7813,363.5781 Q86.4375,363.5781 85.75,364.6563 Q85.0625,365.7188 85.0625,367.8125 Q85.0625,369.9063 85.75,370.9844 Q86.4375,372.0469 87.7813,372.0469 Q88.4063,372.0469 89,371.7813 Q89.5938,371.5 90.2188,370.9219 L90.2188,373.6406 Z "/><text fill="#000000" font-family="sans-serif" font-size="12" lengthAdjust="spacingAndGlyphs" textLength="93" x="107.75" y="372.1543">State_machine</text><line style="stroke: #A80036; stroke-width: 1.5;" x1="39.5" x2="236.5" y1="384" y2="384"/><rect fill="none" height="6" style="stroke: #C82930; stroke-width: 1.0;" width="6" x="46.5" y="392"/><text fill="#000000" font-family="sans-serif" font-size="11" lengthAdjust="spacingAndGlyphs" textLength="119" x="58.5" y="398.2104">m_current_state : int</text><rect fill="none" height="6" style="stroke: #C82930; stroke-width: 1.0;" width="6" x="46.5" y="404.8047"/><text fill="#000000" font-family="sans-serif" font-size="11" lengthAdjust="spacingAndGlyphs" textLength="136" x="58.5" y="411.0151">m_state_functions: func</text><line style="stroke: #A80036; stroke-width: 1.5;" x1="39.5" x2="236.5" y1="417.6094" y2="417.6094"/><ellipse cx="49.5" cy="428.6094" fill="#84BE84" rx="3" ry="3" style="stroke: #038048; stroke-width: 1.0;"/><text fill="#000000" font-family="sans-serif" font-size="11" lengthAdjust="spacingAndGlyphs" textLength="173" x="58.5" y="431.8198">define_state(func, int id) : void</text><ellipse cx="49.5" cy="441.4141" fill="#84BE84" rx="3" ry="3" style="stroke: #038048; stroke-width: 1.0;"/><text fill="#000000" font-family="sans-serif" font-size="11" lengthAdjust="spacingAndGlyphs" textLength="124" x="58.5" y="444.6245">set_state(int id) : void</text><ellipse cx="49.5" cy="454.2188" fill="#84BE84" rx="3" ry="3" style="stroke: #038048; stroke-width: 1.0;"/><text fill="#000000" font-family="sans-serif" font-size="11" lengthAdjust="spacingAndGlyphs" textLength="62" x="58.5" y="457.4292">run() : void</text><!--MD5=[bb76ea953e6d223c7979a1eca2b22ed4]
class Input_state_e--><rect fill="#FEFECE" filter="url(#f1tnmbygavo654)" height="86.4141" id="Input_state_e" style="stroke: #A80036; stroke-width: 1.5;" width="117" x="426.5" y="671.5"/><ellipse cx="441.5" cy="687.5" fill="#EB937F" rx="11" ry="11" style="stroke: #A80036; stroke-width: 1.0;"/><path d="M445.6094,693.5 L437.8906,693.5 L437.8906,681.1094 L445.6094,681.1094 L445.6094,683.2656 L440.3438,683.2656 L440.3438,685.9375 L445.1094,685.9375 L445.1094,688.0938 L440.3438,688.0938 L440.3438,691.3438 L445.6094,691.3438 L445.6094,693.5 Z "/><text fill="#000000" font-family="sans-serif" font-size="12" lengthAdjust="spacingAndGlyphs" textLength="85" x="455.5" y="691.6543">Input_state_e</text><line style="stroke: #A80036; stroke-width: 1.5;" x1="427.5" x2="542.5" y1="703.5" y2="703.5"/><text fill="#000000" font-family="sans-serif" font-size="11" lengthAdjust="spacingAndGlyphs" textLength="69" x="432.5" y="717.7104">INPUT_TURN</text><text fill="#000000" font-family="sans-serif" font-size="11" lengthAdjust="spacingAndGlyphs" textLength="70" x="432.5" y="730.5151">INPUT_INLAY</text><text fill="#000000" font-family="sans-serif" font-size="11" lengthAdjust="spacingAndGlyphs" textLength="71" x="432.5" y="743.3198">INPUT_MENU</text><line style="stroke: #A80036; stroke-width: 1.5;" x1="427.5" x2="542.5" y1="749.9141" y2="749.9141"/><!--MD5=[b53eabbb7ee10d7f5e168b0db2e6a0b2]
class Inputs_e--><rect fill="#FEFECE" filter="url(#f1tnmbygavo654)" height="99.2188" id="Inputs_e" style="stroke: #A80036; stroke-width: 1.5;" width="85" x="926.5" y="358.5"/><ellipse cx="941.5" cy="374.5" fill="#EB937F" rx="11" ry="11" style="stroke: #A80036; stroke-width: 1.0;"/><path d="M945.6094,380.5 L937.8906,380.5 L937.8906,368.1094 L945.6094,368.1094 L945.6094,370.2656 L940.3438,370.2656 L940.3438,372.9375 L945.1094,372.9375 L945.1094,375.0938 L940.3438,375.0938 L940.3438,378.3438 L945.6094,378.3438 L945.6094,380.5 Z "/><text fill="#000000" font-family="sans-serif" font-size="12" lengthAdjust="spacingAndGlyphs" textLength="53" x="955.5" y="378.6543">Inputs_e</text><line style="stroke: #A80036; stroke-width: 1.5;" x1="927.5" x2="1010.5" y1="390.5" y2="390.5"/><text fill="#000000" font-family="sans-serif" font-size="11" lengthAdjust="spacingAndGlyphs" textLength="57" x="932.5" y="404.7104">INPUT_HIT</text><text fill="#000000" font-family="sans-serif" font-size="11" lengthAdjust="spacingAndGlyphs" textLength="66" x="932.5" y="417.5151">INPUT_CALL</text><text fill="#000000" font-family="sans-serif" font-size="11" lengthAdjust="spacingAndGlyphs" textLength="70" x="932.5" y="430.3198">INPUT_SPLIT</text><text fill="#000000" font-family="sans-serif" font-size="11" lengthAdjust="spacingAndGlyphs" textLength="67" x="932.5" y="443.1245">INPUT_HELP</text><line style="stroke: #A80036; stroke-width: 1.5;" x1="927.5" x2="1010.5" y1="449.7188" y2="449.7188"/><!--MD5=[3cab58e622330109321580dbb0b85605]
class Input--><rect fill="#FEFECE" filter="url(#f1tnmbygavo654)" height="99.2188" id="Input" style="stroke: #A80036; stroke-width: 1.5;" width="198" x="393" y="358.5"/><ellipse cx="471.75" cy="374.5" fill="#ADD1B2" rx="11" ry="11" style="stroke: #A80036; stroke-width: 1.0;"/><path d="M474.7188,380.1406 Q474.1406,380.4375 473.5,380.5781 Q472.8594,380.7344 472.1563,380.7344 Q469.6563,380.7344 468.3281,379.0938 Q467.0156,377.4375 467.0156,374.3125 Q467.0156,371.1875 468.3281,369.5313 Q469.6563,367.875 472.1563,367.875 Q472.8594,367.875 473.5,368.0313 Q474.1563,368.1875 474.7188,368.4844 L474.7188,371.2031 Q474.0938,370.625 473.5,370.3594 Q472.9063,370.0781 472.2813,370.0781 Q470.9375,370.0781 470.25,371.1563 Q469.5625,372.2188 469.5625,374.3125 Q469.5625,376.4063 470.25,377.4844 Q470.9375,378.5469 472.2813,378.5469 Q472.9063,378.5469 473.5,378.2813 Q474.0938,378 474.7188,377.4219 L474.7188,380.1406 Z "/><text fill="#000000" font-family="sans-serif" font-size="12" lengthAdjust="spacingAndGlyphs" textLength="32" x="492.25" y="378.6543">Input</text><line style="stroke: #A80036; stroke-width: 1.5;" x1="394" x2="590" y1="390.5" y2="390.5"/><line style="stroke: #A80036; stroke-width: 1.5;" x1="394" x2="590" y1="398.5" y2="398.5"/><ellipse cx="404" cy="409.5" fill="#84BE84" rx="3" ry="3" style="stroke: #038048; stroke-width: 1.0;"/><text fill="#000000" font-family="sans-serif" font-size="11" lengthAdjust="spacingAndGlyphs" textLength="69" x="413" y="412.7104">read() : void</text><ellipse cx="404" cy="422.3047" fill="#84BE84" rx="3" ry="3" style="stroke: #038048; stroke-width: 1.0;"/><text fill="#000000" font-family="sans-serif" font-size="11" lengthAdjust="spacingAndGlyphs" textLength="172" x="413" y="425.5151">set_state(Input_state_e) : void</text><ellipse cx="404" cy="435.1094" fill="#84BE84" rx="3" ry="3" style="stroke: #038048; stroke-width: 1.0;"/><text fill="#000000" font-family="sans-serif" font-size="11" lengthAdjust="spacingAndGlyphs" textLength="149" x="413" y="438.3198">get_state() : Input_state_e</text><ellipse cx="404" cy="447.9141" fill="#84BE84" rx="3" ry="3" style="stroke: #038048; stroke-width: 1.0;"/><text fill="#000000" font-family="sans-serif" font-size="11" lengthAdjust="spacingAndGlyphs" textLength="86" x="413" y="451.1245">get_input() : int</text><!--MD5=[847fc839c78cd68cdbea65b88e602834]
class Output--><rect fill="#FEFECE" filter="url(#f1tnmbygavo654)" height="201.6563" id="Output" style="stroke: #A80036; stroke-width: 1.5;" width="265" x="626.5" y="307"/><ellipse cx="733.25" cy="323" fill="#ADD1B2" rx="11" ry="11" style="stroke: #A80036; stroke-width: 1.0;"/><path d="M736.2188,328.6406 Q735.6406,328.9375 735,329.0781 Q734.3594,329.2344 733.6563,329.2344 Q731.1563,329.2344 729.8281,327.5938 Q728.5156,325.9375 728.5156,322.8125 Q728.5156,319.6875 729.8281,318.0313 Q731.1563,316.375 733.6563,316.375 Q734.3594,316.375 735,316.5313 Q735.6563,316.6875 736.2188,316.9844 L736.2188,319.7031 Q735.5938,319.125 735,318.8594 Q734.4063,318.5781 733.7813,318.5781 Q732.4375,318.5781 731.75,319.6563 Q731.0625,320.7188 731.0625,322.8125 Q731.0625,324.9063 731.75,325.9844 Q732.4375,327.0469 733.7813,327.0469 Q734.4063,327.0469 735,326.7813 Q735.5938,326.5 736.2188,325.9219 L736.2188,328.6406 Z "/><text fill="#000000" font-family="sans-serif" font-size="12" lengthAdjust="spacingAndGlyphs" textLength="43" x="753.75" y="327.1543">Output</text><line style="stroke: #A80036; stroke-width: 1.5;" x1="627.5" x2="890.5" y1="339" y2="339"/><line style="stroke: #A80036; stroke-width: 1.5;" x1="627.5" x2="890.5" y1="347" y2="347"/><ellipse cx="637.5" cy="358" fill="#84BE84" rx="3" ry="3" style="stroke: #038048; stroke-width: 1.0;"/><text fill="#000000" font-family="sans-serif" font-size="11" lengthAdjust="spacingAndGlyphs" textLength="42" x="646.5" y="361.2104">Output(</text><text fill="#000000" font-family="sans-serif" font-size="11" lengthAdjust="spacingAndGlyphs" textLength="100" x="646.5" y="374.0151">Card_container *,</text><text fill="#000000" font-family="sans-serif" font-size="11" lengthAdjust="spacingAndGlyphs" textLength="100" x="646.5" y="386.8198">Card_container *,</text><text fill="#000000" font-family="sans-serif" font-size="11" lengthAdjust="spacingAndGlyphs" textLength="100" x="646.5" y="399.6245">Card_container *,</text><text fill="#000000" font-family="sans-serif" font-size="11" lengthAdjust="spacingAndGlyphs" textLength="96" x="646.5" y="412.4292">Card_container *</text><text fill="#000000" font-family="sans-serif" font-size="11" lengthAdjust="spacingAndGlyphs" textLength="4" x="646.5" y="425.2339">)</text><ellipse cx="637.5" cy="434.8281" fill="#84BE84" rx="3" ry="3" style="stroke: #038048; stroke-width: 1.0;"/><text fill="#000000" font-family="sans-serif" font-size="11" lengthAdjust="spacingAndGlyphs" textLength="239" x="646.5" y="438.0386">draw_text(String *string, int x, int y) : void</text><ellipse cx="637.5" cy="447.6328" fill="#84BE84" rx="3" ry="3" style="stroke: #038048; stroke-width: 1.0;"/><text fill="#000000" font-family="sans-serif" font-size="11" lengthAdjust="spacingAndGlyphs" textLength="164" x="646.5" y="450.8433">animate_draw_player() : void</text><ellipse cx="637.5" cy="460.4375" fill="#84BE84" rx="3" ry="3" style="stroke: #038048; stroke-width: 1.0;"/><text fill="#000000" font-family="sans-serif" font-size="11" lengthAdjust="spacingAndGlyphs" textLength="166" x="646.5" y="463.6479">animate_draw_casino() : void</text><ellipse cx="637.5" cy="473.2422" fill="#84BE84" rx="3" ry="3" style="stroke: #038048; stroke-width: 1.0;"/><text fill="#000000" font-family="sans-serif" font-size="11" lengthAdjust="spacingAndGlyphs" textLength="137" x="646.5" y="476.4526">animate_discard() : void</text><ellipse cx="637.5" cy="486.0469" fill="#84BE84" rx="3" ry="3" style="stroke: #038048; stroke-width: 1.0;"/><text fill="#000000" font-family="sans-serif" font-size="11" lengthAdjust="spacingAndGlyphs" textLength="133" x="646.5" y="489.2573">animation_done() : void</text><ellipse cx="637.5" cy="498.8516" fill="#84BE84" rx="3" ry="3" style="stroke: #038048; stroke-width: 1.0;"/><text fill="#000000" font-family="sans-serif" font-size="11" lengthAdjust="spacingAndGlyphs" textLength="69" x="646.5" y="502.062">print() : void</text><!--MD5=[18eee71c88ab61f27581b8cbdd3ef5ee]
class Color--><rect fill="#FEFECE" filter="url(#f1tnmbygavo654)" height="112.0234" id="Color" style="stroke: #A80036; stroke-width: 1.5;" width="64" x="294" y="352"/><ellipse cx="309" cy="368" fill="#EB937F" rx="11" ry="11" style="stroke: #A80036; stroke-width: 1.0;"/><path d="M313.1094,374 L305.3906,374 L305.3906,361.6094 L313.1094,361.6094 L313.1094,363.7656 L307.8438,363.7656 L307.8438,366.4375 L312.6094,366.4375 L312.6094,368.5938 L307.8438,368.5938 L307.8438,371.8438 L313.1094,371.8438 L313.1094,374 Z "/><text fill="#000000" font-family="sans-serif" font-size="12" lengthAdjust="spacingAndGlyphs" textLength="32" x="323" y="372.1543">Color</text><line style="stroke: #A80036; stroke-width: 1.5;" x1="295" x2="357" y1="384" y2="384"/><text fill="#000000" font-family="sans-serif" font-size="11" lengthAdjust="spacingAndGlyphs" textLength="38" x="300" y="398.2104">GREEN</text><text fill="#000000" font-family="sans-serif" font-size="11" lengthAdjust="spacingAndGlyphs" textLength="22" x="300" y="411.0151">RED</text><text fill="#000000" font-family="sans-serif" font-size="11" lengthAdjust="spacingAndGlyphs" textLength="36" x="300" y="423.8198">BLACK</text><text fill="#000000" font-family="sans-serif" font-size="11" lengthAdjust="spacingAndGlyphs" textLength="34" x="300" y="436.6245">WHITE</text><text fill="#000000" font-family="sans-serif" font-size="11" lengthAdjust="spacingAndGlyphs" textLength="44" x="300" y="449.4292">YELLOW</text><line style="stroke: #A80036; stroke-width: 1.5;" x1="295" x2="357" y1="456.0234" y2="456.0234"/><!--MD5=[463c45b1df3dbfe1c2134e01e0a41cde]
class Screen--><rect fill="#FEFECE" filter="url(#f1tnmbygavo654)" height="124.8281" id="Screen" style="stroke: #A80036; stroke-width: 1.5;" width="382" x="579" y="652"/><ellipse cx="743.75" cy="668" fill="#ADD1B2" rx="11" ry="11" style="stroke: #A80036; stroke-width: 1.0;"/><path d="M746.7188,673.6406 Q746.1406,673.9375 745.5,674.0781 Q744.8594,674.2344 744.1563,674.2344 Q741.6563,674.2344 740.3281,672.5938 Q739.0156,670.9375 739.0156,667.8125 Q739.0156,664.6875 740.3281,663.0313 Q741.6563,661.375 744.1563,661.375 Q744.8594,661.375 745.5,661.5313 Q746.1563,661.6875 746.7188,661.9844 L746.7188,664.7031 Q746.0938,664.125 745.5,663.8594 Q744.9063,663.5781 744.2813,663.5781 Q742.9375,663.5781 742.25,664.6563 Q741.5625,665.7188 741.5625,667.8125 Q741.5625,669.9063 742.25,670.9844 Q742.9375,672.0469 744.2813,672.0469 Q744.9063,672.0469 745.5,671.7813 Q746.0938,671.5 746.7188,670.9219 L746.7188,673.6406 Z "/><text fill="#000000" font-family="sans-serif" font-size="12" lengthAdjust="spacingAndGlyphs" textLength="44" x="764.25" y="672.1543">Screen</text><line style="stroke: #A80036; stroke-width: 1.5;" x1="580" x2="960" y1="684" y2="684"/><rect fill="none" height="6" style="stroke: #C82930; stroke-width: 1.0;" width="6" x="587" y="692"/><text fill="#000000" font-family="sans-serif" font-size="11" lengthAdjust="spacingAndGlyphs" textLength="176" x="599" y="698.2104">m_string[width][height] : string</text><line style="stroke: #A80036; stroke-width: 1.5;" x1="580" x2="960" y1="704.8047" y2="704.8047"/><ellipse cx="590" cy="715.8047" fill="#84BE84" rx="3" ry="3" style="stroke: #038048; stroke-width: 1.0;"/><text fill="#000000" font-family="sans-serif" font-size="11" lengthAdjust="spacingAndGlyphs" textLength="71" x="599" y="719.0151">clear() : void</text><ellipse cx="590" cy="728.6094" fill="#84BE84" rx="3" ry="3" style="stroke: #038048; stroke-width: 1.0;"/><text fill="#000000" font-family="sans-serif" font-size="11" lengthAdjust="spacingAndGlyphs" textLength="318" x="599" y="731.8198">set_string(String s, int x, int y, Color fg, Color bg) : void</text><ellipse cx="590" cy="741.4141" fill="#84BE84" rx="3" ry="3" style="stroke: #038048; stroke-width: 1.0;"/><text fill="#000000" font-family="sans-serif" font-size="11" lengthAdjust="spacingAndGlyphs" textLength="301" x="599" y="744.6245">set_pixel(char c, int x, int y, Color fg, Color bg) : void</text><ellipse cx="590" cy="754.2188" fill="#84BE84" rx="3" ry="3" style="stroke: #038048; stroke-width: 1.0;"/><text fill="#000000" font-family="sans-serif" font-size="11" lengthAdjust="spacingAndGlyphs" textLength="356" x="599" y="757.4292">fill(char c, int x1, int y1, int x2. int y2, Color fg, Color bg) : void</text><ellipse cx="590" cy="767.0234" fill="#84BE84" rx="3" ry="3" style="stroke: #038048; stroke-width: 1.0;"/><text fill="#000000" font-family="sans-serif" font-size="11" lengthAdjust="spacingAndGlyphs" textLength="71" x="599" y="770.2339">draw() : void</text><!--MD5=[d7a7bbbb668258532acd4bf7a6327dba]
class Card_types_e--><rect fill="#FEFECE" filter="url(#f1tnmbygavo654)" height="99.2188" id="Card_types_e" style="stroke: #A80036; stroke-width: 1.5;" width="115" x="1114.5" y="1081"/><ellipse cx="1129.5" cy="1097" fill="#EB937F" rx="11" ry="11" style="stroke: #A80036; stroke-width: 1.0;"/><path d="M1133.6094,1103 L1125.8906,1103 L1125.8906,1090.6094 L1133.6094,1090.6094 L1133.6094,1092.7656 L1128.3438,1092.7656 L1128.3438,1095.4375 L1133.1094,1095.4375 L1133.1094,1097.5938 L1128.3438,1097.5938 L1128.3438,1100.8438 L1133.6094,1100.8438 L1133.6094,1103 Z "/><text fill="#000000" font-family="sans-serif" font-size="12" lengthAdjust="spacingAndGlyphs" textLength="83" x="1143.5" y="1101.1543">Card_types_e</text><line style="stroke: #A80036; stroke-width: 1.5;" x1="1115.5" x2="1228.5" y1="1113" y2="1113"/><text fill="#000000" font-family="sans-serif" font-size="11" lengthAdjust="spacingAndGlyphs" textLength="72" x="1120.5" y="1127.2104">CARD_HEART</text><text fill="#000000" font-family="sans-serif" font-size="11" lengthAdjust="spacingAndGlyphs" textLength="74" x="1120.5" y="1140.0151">CARD_CLUBS</text><text fill="#000000" font-family="sans-serif" font-size="11" lengthAdjust="spacingAndGlyphs" textLength="96" x="1120.5" y="1152.8198">CARD_DIAMONDS</text><text fill="#000000" font-family="sans-serif" font-size="11" lengthAdjust="spacingAndGlyphs" textLength="81" x="1120.5" y="1165.6245">CARD_SPADES</text><line style="stroke: #A80036; stroke-width: 1.5;" x1="1115.5" x2="1228.5" y1="1172.2188" y2="1172.2188"/><!--MD5=[7a7a4d00363ddb180f3842fe864d6437]
class Card_container--><rect fill="#FEFECE" filter="url(#f1tnmbygavo654)" height="124.8281" id="Card_container" style="stroke: #A80036; stroke-width: 1.5;" width="208" x="1068" y="652"/><ellipse cx="1120.25" cy="668" fill="#ADD1B2" rx="11" ry="11" style="stroke: #A80036; stroke-width: 1.0;"/><path d="M1123.2188,673.6406 Q1122.6406,673.9375 1122,674.0781 Q1121.3594,674.2344 1120.6563,674.2344 Q1118.1563,674.2344 1116.8281,672.5938 Q1115.5156,670.9375 1115.5156,667.8125 Q1115.5156,664.6875 1116.8281,663.0313 Q1118.1563,661.375 1120.6563,661.375 Q1121.3594,661.375 1122,661.5313 Q1122.6563,661.6875 1123.2188,661.9844 L1123.2188,664.7031 Q1122.5938,664.125 1122,663.8594 Q1121.4063,663.5781 1120.7813,663.5781 Q1119.4375,663.5781 1118.75,664.6563 Q1118.0625,665.7188 1118.0625,667.8125 Q1118.0625,669.9063 1118.75,670.9844 Q1119.4375,672.0469 1120.7813,672.0469 Q1121.4063,672.0469 1122,671.7813 Q1122.5938,671.5 1123.2188,670.9219 L1123.2188,673.6406 Z "/><text fill="#000000" font-family="sans-serif" font-size="12" lengthAdjust="spacingAndGlyphs" textLength="95" x="1140.75" y="672.1543">Card_container</text><line style="stroke: #A80036; stroke-width: 1.5;" x1="1069" x2="1275" y1="684" y2="684"/><rect fill="none" height="6" style="stroke: #C82930; stroke-width: 1.0;" width="6" x="1076" y="692"/><text fill="#000000" font-family="sans-serif" font-size="11" lengthAdjust="spacingAndGlyphs" textLength="117" x="1088" y="698.2104">m_card_amount : int</text><ellipse cx="1079" cy="707.8047" fill="none" rx="3" ry="3" style="stroke: #038048; stroke-width: 1.0;"/><text fill="#000000" font-family="sans-serif" font-size="11" lengthAdjust="spacingAndGlyphs" textLength="123" x="1088" y="711.0151">operator[int i] : *Card</text><line style="stroke: #A80036; stroke-width: 1.5;" x1="1069" x2="1275" y1="717.6094" y2="717.6094"/><ellipse cx="1079" cy="728.6094" fill="#84BE84" rx="3" ry="3" style="stroke: #038048; stroke-width: 1.0;"/><text fill="#000000" font-family="sans-serif" font-size="11" lengthAdjust="spacingAndGlyphs" textLength="56" x="1088" y="731.8198">size() : int</text><ellipse cx="1079" cy="741.4141" fill="#84BE84" rx="3" ry="3" style="stroke: #038048; stroke-width: 1.0;"/><text fill="#000000" font-family="sans-serif" font-size="11" lengthAdjust="spacingAndGlyphs" textLength="119" x="1088" y="744.6245">get_total_value() : int</text><ellipse cx="1079" cy="754.2188" fill="#84BE84" rx="3" ry="3" style="stroke: #038048; stroke-width: 1.0;"/><text fill="#000000" font-family="sans-serif" font-size="11" lengthAdjust="spacingAndGlyphs" textLength="182" x="1088" y="757.4292">discard(&amp;Card_container) : bool</text><ellipse cx="1079" cy="767.0234" fill="#84BE84" rx="3" ry="3" style="stroke: #038048; stroke-width: 1.0;"/><text fill="#000000" font-family="sans-serif" font-size="11" lengthAdjust="spacingAndGlyphs" textLength="168" x="1088" y="770.2339">draw(&amp;Card_container) : bool</text><!--MD5=[5e305716458bbdabbd2d7f572ed2bae2]
class Card--><rect fill="#FEFECE" filter="url(#f1tnmbygavo654)" height="86.4141" id="Card" style="stroke: #A80036; stroke-width: 1.5;" width="171" x="1086.5" y="918"/><ellipse cx="1153.25" cy="934" fill="#ADD1B2" rx="11" ry="11" style="stroke: #A80036; stroke-width: 1.0;"/><path d="M1156.2188,939.6406 Q1155.6406,939.9375 1155,940.0781 Q1154.3594,940.2344 1153.6563,940.2344 Q1151.1563,940.2344 1149.8281,938.5938 Q1148.5156,936.9375 1148.5156,933.8125 Q1148.5156,930.6875 1149.8281,929.0313 Q1151.1563,927.375 1153.6563,927.375 Q1154.3594,927.375 1155,927.5313 Q1155.6563,927.6875 1156.2188,927.9844 L1156.2188,930.7031 Q1155.5938,930.125 1155,929.8594 Q1154.4063,929.5781 1153.7813,929.5781 Q1152.4375,929.5781 1151.75,930.6563 Q1151.0625,931.7188 1151.0625,933.8125 Q1151.0625,935.9063 1151.75,936.9844 Q1152.4375,938.0469 1153.7813,938.0469 Q1154.4063,938.0469 1155,937.7813 Q1155.5938,937.5 1156.2188,936.9219 L1156.2188,939.6406 Z "/><text fill="#000000" font-family="sans-serif" font-size="12" lengthAdjust="spacingAndGlyphs" textLength="29" x="1173.75" y="938.1543">Card</text><line style="stroke: #A80036; stroke-width: 1.5;" x1="1087.5" x2="1256.5" y1="950" y2="950"/><rect fill="none" height="6" style="stroke: #C82930; stroke-width: 1.0;" width="6" x="1094.5" y="958"/><text fill="#000000" font-family="sans-serif" font-size="11" lengthAdjust="spacingAndGlyphs" textLength="73" x="1106.5" y="964.2104">m_value : int</text><line style="stroke: #A80036; stroke-width: 1.5;" x1="1087.5" x2="1256.5" y1="970.8047" y2="970.8047"/><ellipse cx="1097.5" cy="981.8047" fill="#84BE84" rx="3" ry="3" style="stroke: #038048; stroke-width: 1.0;"/><text fill="#000000" font-family="sans-serif" font-size="11" lengthAdjust="spacingAndGlyphs" textLength="88" x="1106.5" y="985.0151">get_value() : int</text><ellipse cx="1097.5" cy="994.6094" fill="#84BE84" rx="3" ry="3" style="stroke: #038048; stroke-width: 1.0;"/><text fill="#000000" font-family="sans-serif" font-size="11" lengthAdjust="spacingAndGlyphs" textLength="145" x="1106.5" y="997.8198">get_type() : Card_types_e</text><!--MD5=[85b8c9f68941e71f2a9d68ecd78c25f5]
link Main to State_machine--><path d="M155.753,221.2751 C155.753,221.2751 147.89,303.48 144.53,338.69 " fill="none" id="Main-State_machine" style="stroke: #A80036; stroke-width: 1.0;"/><polygon fill="#A80036" points="143.28,351.75,148.1126,343.1683,143.7525,346.7724,140.1484,342.4123,143.28,351.75" style="stroke: #A80036; stroke-width: 1.0;"/><line style="stroke: #A80036; stroke-width: 1.0;" x1="143.7525" x2="144.52" y1="346.7724" y2="338.81"/><polygon fill="#A80036" points="156.9,209.33,152.3448,214.9202,155.753,221.2751,160.3082,215.6849,156.9,209.33" style="stroke: #A80036; stroke-width: 1.0;"/><text fill="#000000" font-family="sans-serif" font-size="13" lengthAdjust="spacingAndGlyphs" textLength="115" x="155" y="252.0669">m_state_machine</text><!--MD5=[af02a7d83980ec0a0b9817b239ff4f38]
link Output to Screen--><path d="M763.0554,521.1221 C763.0554,521.1221 766.04,603.82 767.31,638.91 " fill="none" id="Output-Screen" style="stroke: #A80036; stroke-width: 1.0;"/><polygon fill="#A80036" points="767.78,651.96,771.4508,642.8208,767.5986,646.9633,763.4561,643.111,767.78,651.96" style="stroke: #A80036; stroke-width: 1.0;"/><line style="stroke: #A80036; stroke-width: 1.0;" x1="767.5986" x2="767.305" y1="646.9633" y2="638.965"/><polygon fill="#A80036" points="762.62,509.13,758.8403,515.2712,763.0554,521.1221,766.835,514.9809,762.62,509.13" style="stroke: #A80036; stroke-width: 1.0;"/><rect fill="none" height="6" style="stroke: #C82930; stroke-width: 1.0;" width="6" x="768" y="567.5664"/><text fill="#000000" font-family="sans-serif" font-size="13" lengthAdjust="spacingAndGlyphs" textLength="63" x="778" y="574.5669">m_screen</text><!--MD5=[67be0d0d3b81f1dea00da8f925c3944b]
link Input to Input_state_e--><path d="M490.6028,469.5868 C490.6028,469.5868 487.49,605.35 486.27,658.28 " fill="none" id="Input-Input_state_e" style="stroke: #A80036; stroke-width: 1.0;"/><polygon fill="#A80036" points="485.97,671.46,490.1768,662.5548,486.0855,666.4613,482.1789,662.37,485.97,671.46" style="stroke: #A80036; stroke-width: 1.0;"/><line style="stroke: #A80036; stroke-width: 1.0;" x1="486.0855" x2="486.265" y1="666.4613" y2="658.465"/><polygon fill="#A80036" points="490.88,457.59,486.7425,463.496,490.6028,469.5868,494.7404,463.6808,490.88,457.59" style="stroke: #A80036; stroke-width: 1.0;"/><rect fill="none" height="6" style="stroke: #C82930; stroke-width: 1.0;" width="6" x="491" y="567.5664"/><text fill="#000000" font-family="sans-serif" font-size="13" lengthAdjust="spacingAndGlyphs" textLength="53" x="501" y="574.5669">m_state</text><!--MD5=[e22591a08c71f58f0da148ee8587353d]
link Card to Card_types_e--><path d="M1172,1016.27 C1172,1016.27 1172,1050.88 1172,1067.28 " fill="none" id="Card-Card_types_e" style="stroke: #A80036; stroke-width: 1.0;"/><polygon fill="#A80036" points="1172,1080.71,1176,1071.71,1172,1075.71,1168,1071.71,1172,1080.71" style="stroke: #A80036; stroke-width: 1.0;"/><line style="stroke: #A80036; stroke-width: 1.0;" x1="1172" x2="1172" y1="1075.71" y2="1067.71"/><polygon fill="#A80036" points="1172,1004.27,1168,1010.27,1172,1016.27,1176,1010.27,1172,1004.27" style="stroke: #A80036; stroke-width: 1.0;"/><rect fill="none" height="6" style="stroke: #C82930; stroke-width: 1.0;" width="6" x="1175" y="1040.0664"/><text fill="#000000" font-family="sans-serif" font-size="13" lengthAdjust="spacingAndGlyphs" textLength="48" x="1185" y="1047.0669">m_type</text><!--MD5=[43cb7501f3e68cafa1d7c9ff126415d8]
link Card_container to Card--><path d="M1172,789.2 C1172,789.2 1172,870.84 1172,904.59 " fill="none" id="Card_container-Card" style="stroke: #A80036; stroke-width: 1.0;"/><polygon fill="#A80036" points="1172,917.94,1176,908.94,1172,912.94,1168,908.94,1172,917.94" style="stroke: #A80036; stroke-width: 1.0;"/><line style="stroke: #A80036; stroke-width: 1.0;" x1="1172" x2="1172" y1="912.94" y2="904.94"/><polygon fill="#A80036" points="1172,777.2,1168,783.2,1172,789.2,1176,783.2,1172,777.2" style="stroke: #A80036; stroke-width: 1.0;"/><text fill="#000000" font-family="sans-serif" font-size="13" lengthAdjust="spacingAndGlyphs" textLength="81" x="1173" y="853.0669">m_cards[52]</text><!--MD5=[5c8bd5513cd9c470a3382067a5eed9aa]
link Main to Card_container--><path d="M250.0755,136.6399 C250.0755,136.6399 912,165.4 1028,264 C1138.55,357.96 1165.06,536.96 1170.9,638.43 " fill="none" id="Main-Card_container" style="stroke: #A80036; stroke-width: 1.0;"/><polygon fill="#A80036" points="1171.57,651.61,1175.11,642.4193,1171.3173,646.6164,1167.1202,642.8237,1171.57,651.61" style="stroke: #A80036; stroke-width: 1.0;"/><line style="stroke: #A80036; stroke-width: 1.0;" x1="1171.3173" x2="1170.915" y1="646.6164" y2="638.63"/><polygon fill="#A80036" points="238.08,136.31,243.9678,140.4734,250.0755,136.6399,244.1877,132.4765,238.08,136.31" style="stroke: #A80036; stroke-width: 1.0;"/><rect fill="none" height="6" style="stroke: #C82930; stroke-width: 1.0;" width="6" x="1156" y="405.7656"/><text fill="#000000" font-family="sans-serif" font-size="13" lengthAdjust="spacingAndGlyphs" textLength="98" x="1169.5" y="390.0669">m_player_hand</text><text fill="#000000" font-family="sans-serif" font-size="13" lengthAdjust="spacingAndGlyphs" textLength="100" x="1168.5" y="405.1997">-m_discard_pile</text><text fill="#000000" font-family="sans-serif" font-size="13" lengthAdjust="spacingAndGlyphs" textLength="105" x="1166" y="420.3325">-m_casino_hand</text><text fill="#000000" font-family="sans-serif" font-size="13" lengthAdjust="spacingAndGlyphs" textLength="84" x="1176.5" y="435.4653">-m_draw_pile</text><!--MD5=[83e2842d5ad5f435368183166c2b74ac]
link Main to Input--><path d="M248.864,177.804 C248.864,177.804 337.97,230.78 376,264 C404.06,288.51 430.61,320.33 451.21,347.74 " fill="none" id="Main-Input" style="stroke: #A80036; stroke-width: 1.0;"/><polygon fill="#A80036" points="459.09,358.39,456.9513,348.7762,456.1156,354.3709,450.5208,353.5352,459.09,358.39" style="stroke: #A80036; stroke-width: 1.0;"/><line style="stroke: #A80036; stroke-width: 1.0;" x1="456.1156" x2="451.355" y1="354.3709" y2="347.935"/><polygon fill="#A80036" points="238.35,172.02,241.679,178.4167,248.864,177.804,245.535,171.4073,238.35,172.02" style="stroke: #A80036; stroke-width: 1.0;"/><text fill="#000000" font-family="sans-serif" font-size="13" lengthAdjust="spacingAndGlyphs" textLength="52" x="366" y="252.0669">m_input</text><!--MD5=[4831e06bb8b23b7f5b9550da34952487]
link Main to Output--><path d="M250.1913,147.4149 C250.1913,147.4149 494.9,198.39 609,264 C625.76,273.64 642.09,285.53 657.44,298.3 " fill="none" id="Main-Output" style="stroke: #A80036; stroke-width: 1.0;"/><polygon fill="#A80036" points="667.37,306.81,663.1377,297.9169,663.5729,303.5569,657.9329,303.9922,667.37,306.81" style="stroke: #A80036; stroke-width: 1.0;"/><line style="stroke: #A80036; stroke-width: 1.0;" x1="663.5729" x2="657.5" y1="303.5569" y2="298.355"/><polygon fill="#A80036" points="238.36,145.41,243.6074,150.3562,250.1913,147.4149,244.944,142.4687,238.36,145.41" style="stroke: #A80036; stroke-width: 1.0;"/><text fill="#000000" font-family="sans-serif" font-size="13" lengthAdjust="spacingAndGlyphs" textLength="62" x="588" y="252.0669">m_output</text><!--MD5=[5f9ca331134b376932008c57ee2e18e2]
link Output to Card_container--><path d="M847.8091,517.6506 C847.8091,517.6506 918.67,581.55 960,601 C987.53,613.96 999.66,597.93 1028,609 C1050.09,617.63 1071.88,630.48 1091.57,644.25 " fill="none" id="Output-Card_container" style="stroke: #A80036; stroke-width: 1.0;"/><polygon fill="#A80036" points="1102.28,651.97,1097.3258,643.4579,1098.2266,649.0425,1092.6419,649.9433,1102.28,651.97" style="stroke: #A80036; stroke-width: 1.0;"/><line style="stroke: #A80036; stroke-width: 1.0;" x1="1098.2266" x2="1091.735" y1="649.0425" y2="644.37"/><polygon fill="#A80036" points="839.41,509.08,840.7527,516.165,847.8091,517.6506,846.4664,510.5656,839.41,509.08" style="stroke: #A80036; stroke-width: 1.0;"/><rect fill="none" height="6" style="stroke: #C82930; stroke-width: 1.0;" width="6" x="963" y="567.7656"/><text fill="#000000" font-family="sans-serif" font-size="13" lengthAdjust="spacingAndGlyphs" textLength="125" x="974" y="552.0669">* mr_player_hand *</text><text fill="#000000" font-family="sans-serif" font-size="13" lengthAdjust="spacingAndGlyphs" textLength="127" x="973" y="567.1997">-* mr_discard_pile *</text><text fill="#000000" font-family="sans-serif" font-size="13" lengthAdjust="spacingAndGlyphs" textLength="121" x="976" y="582.3325">-* mr_casino_hand</text><text fill="#000000" font-family="sans-serif" font-size="13" lengthAdjust="spacingAndGlyphs" textLength="100" x="986.5" y="597.4653">-* mr_draw_pile</text><!--MD5=[cfe57f9276ccb742917b72140c63ddb8]
@startuml class_diagram

package base {
    class Main {
        -m_player_money : int
		+init() : void
		+loop() : void

		-menu() : void
		-inlay() : void
		-player_turn() : void
		-dealer_turn() : void
    }

	class State_machine {
		-m_current_state : int
		-m_state_functions: func
		+define_state(func, int id) : void
		+set_state(int id) : void
		+run() : void
	}
}

Main *- -> State_machine : m_state_machine

package Cli {
    enum Input_state_e {
        INPUT_TURN
        INPUT_INLAY
        INPUT_MENU
    }

    enum Inputs_e {
        INPUT_HIT
        INPUT_CALL
        INPUT_SPLIT
        INPUT_HELP
    }

    class Input {
        +read() : void
        +set_state(Input_state_e) : void
        +get_state() : Input_state_e
        +get_input() : int
    }


    class Output {
        +Output(\nCard_container *,\nCard_container *,\nCard_container *,\nCard_container *\n)
		+draw_text(String *string, int x, int y) : void
		+animate_draw_player() : void
		+animate_draw_casino() : void
		+animate_discard() : void
		+animation_done() : void
        +print() : void
    }

	enum Color {
		GREEN
		RED
		BLACK
		WHITE
		YELLOW
	}

	class Screen {
		-m_string[width][height] : string
		+clear() : void
		+set_string(String s, int x, int y, Color fg, Color bg) : void
		+set_pixel(char c, int x, int y, Color fg, Color bg) : void
		+fill(char c, int x1, int y1, int x2. int y2, Color fg, Color bg) : void
		+draw() : void
	}
}

Output *- -> Screen : -m_screen
Input *- -> Input_state_e : -m_state

package BlakJack {
    enum Card_types_e {
        CARD_HEART
        CARD_CLUBS
        CARD_DIAMONDS
        CARD_SPADES
    }

    class Card_container {
        -m_card_amount : int
        +operator[int i] : *Card
		+size() : int
        +get_total_value() : int
        +discard(&Card_container) : bool
        +draw(&Card_container) : bool
    }

    class Card {
        -m_value : int
        +get_value() : int
        +get_type() : Card_types_e
	}

    Card *- -> Card_types_e : -m_type
    Card_container *- - -> Card : m_cards[52]

}



Main *- -> Card_container : -m_player_hand\n-m_discard_pile\n-m_casino_hand\n-m_draw_pile
Main *- -> Input : m_input
Main *- -> Output : m_output

Output *- -> Card_container : -* mr_player_hand *\n-* mr_discard_pile *\n-* mr_casino_hand\n-* mr_draw_pile


@enduml

PlantUML version 1.2020.02(Sun Mar 01 11:22:07 CET 2020)
(GPL source distribution)
Java Runtime: OpenJDK Runtime Environment
JVM: OpenJDK 64-Bit Server VM
Java Version: 11.0.22+7-post-Ubuntu-0ubuntu222.04.1
Operating System: Linux
Default Encoding: UTF-8
Language: en
Country: US
--></g></svg>